<svg width="73" height="73" viewBox="0 0 73 73" fill="none" xmlns="http://www.w3.org/2000/svg">
<path d="M69.9586 18.1867C68.1171 17.4242 65.9981 17.8454 64.5884 19.2547L55.2013 28.6428V22.9207C55.2013 18.8458 51.8971 15.5412 47.8214 15.5412H7.37986C3.30438 15.5412 0 18.8458 0 22.9207V50.0793C0 54.1542 3.30438 57.4588 7.37986 57.4588H47.8214C51.8971 57.4588 55.2013 54.1542 55.2013 50.0793V44.357L64.5884 53.7451C65.5319 54.688 66.7915 55.1892 68.0741 55.1892C68.7085 55.1892 69.349 55.0656 69.9586 54.8132C71.7991 54.0505 73 52.2541 73 50.261V22.7388C73 20.7457 71.7991 18.9493 69.9586 18.1867ZM34.6839 38.4118L24.6253 46.1398C24.1963 46.47 23.6776 46.6388 23.1564 46.6388C22.7935 46.6388 22.4292 46.5571 22.0909 46.3903C21.2673 45.9847 20.7459 45.1465 20.7459 44.2279V28.7718C20.7459 27.8531 21.2673 27.0151 22.0909 26.6096C22.9149 26.2036 23.8972 26.3005 24.6251 26.8602L34.6837 34.588C35.2778 35.0444 35.6259 35.7509 35.6259 36.4998C35.6261 37.2489 35.278 37.9554 34.6839 38.4118Z" fill="#EE2461"/>
</svg>
