<svg width="68" height="69" viewBox="0 0 68 69" fill="none" xmlns="http://www.w3.org/2000/svg">
<path d="M57.1683 68.1303H10.2737C7.54868 68.1184 4.93902 67.0291 3.01426 65.1002C1.0895 63.1712 0.00591099 60.5592 0 57.8341V23.0341C0.0112576 21.1894 0.517946 19.3815 1.46708 17.7996C2.41622 16.2177 3.77293 14.9199 5.39536 14.0418L28.7977 1.25035C30.3049 0.429866 31.9937 0 33.7097 0C35.4258 0 37.1145 0.429866 38.6218 1.25035L62.0916 13.9744C63.714 14.8525 65.0707 16.1503 66.0198 17.7322C66.969 19.3141 67.4757 21.1219 67.4869 22.9667V57.8341C67.481 60.5669 66.3912 63.1857 64.4567 65.116C62.5223 67.0462 59.9011 68.1303 57.1683 68.1303ZM33.721 4.48756C32.7556 4.48613 31.8052 4.72567 30.9559 5.18446L7.48606 17.931C6.57573 18.4352 5.8178 19.1749 5.29175 20.0728C4.76569 20.9707 4.49088 21.9935 4.49613 23.0341V57.8341C4.49613 59.3724 5.1072 60.8477 6.19491 61.9354C7.28263 63.0231 8.75788 63.6342 10.2961 63.6342H57.1683C58.7027 63.6282 60.1722 63.0145 61.255 61.9274C62.3379 60.8404 62.9458 59.3685 62.9458 57.8341V23.0341C62.9467 21.989 62.6651 20.963 62.1309 20.0648C61.5967 19.1665 60.8297 18.4293 59.9109 17.931L36.4861 5.20694C35.6388 4.74033 34.6883 4.49303 33.721 4.48756Z" fill="#EE2461"/>
<path d="M61.0125 15.9527L37.5652 3.22867C36.3854 2.58724 35.0639 2.25122 33.721 2.25122C32.3781 2.25122 31.0566 2.58724 29.8768 3.22867L6.42948 15.9527C5.16019 16.6481 4.10188 17.6728 3.36601 18.919C2.63014 20.1653 2.24394 21.5869 2.24808 23.0341V57.8342C2.24808 59.9687 3.096 62.0157 4.60531 63.525C6.11461 65.0343 8.16167 65.8823 10.2962 65.8823H57.1683C59.2989 65.8763 61.3402 65.0258 62.8446 63.5171C64.3491 62.0084 65.1939 59.9648 65.1939 57.8342V23.0341C65.1981 21.5869 64.8119 20.1653 64.076 18.919C63.3401 17.6728 62.2818 16.6481 61.0125 15.9527ZM46.9621 47.4256C46.3653 50.4994 44.7176 53.2698 42.3017 55.2618C39.8858 57.2537 36.8522 58.3431 33.721 58.3431C30.5898 58.3431 27.5561 57.2537 25.1402 55.2618C22.7243 53.2698 21.0767 50.4994 20.4799 47.4256C20.431 47.1034 20.4527 46.7745 20.5436 46.4615C20.6344 46.1485 20.7923 45.8591 21.0061 45.6132C21.2199 45.3672 21.4847 45.1708 21.782 45.0373C22.0793 44.9039 22.4021 44.8367 22.728 44.8404C23.2635 44.8326 23.7843 45.0163 24.1964 45.3583C24.6086 45.7004 24.885 46.1784 24.976 46.7063C25.3994 48.7271 26.5053 50.5407 28.108 51.8424C29.7107 53.1441 31.7125 53.8546 33.7772 53.8546C35.8419 53.8546 37.8437 53.1441 39.4464 51.8424C41.0491 50.5407 42.155 48.7271 42.5784 46.7063C42.6694 46.1784 42.9458 45.7004 43.358 45.3583C43.7701 45.0163 44.2909 44.8326 44.8264 44.8404C45.1362 44.8536 45.4399 44.9308 45.7185 45.067C45.997 45.2033 46.2444 45.3957 46.4449 45.6322C46.6455 45.8687 46.795 46.1441 46.884 46.4411C46.973 46.7382 46.9996 47.0504 46.9621 47.3582V47.4256Z" fill="#EE2461"/>
</svg>
