<svg width="85" height="85" viewBox="0 0 85 85" fill="none" xmlns="http://www.w3.org/2000/svg">
<path d="M65.9676 39.6175C68.4703 39.6818 70.448 41.7671 70.3828 44.2774C70.3158 46.7802 68.2333 48.7579 65.7305 48.6899C63.2268 48.6257 61.2501 46.5403 61.3133 44.0357C61.3776 41.531 63.4619 39.5543 65.9676 39.6175ZM24.5546 28.4174C26.1828 28.4174 27.3341 29.5687 27.3341 31.0004V35.3335H31.6663C33.0933 35.3335 34.2446 36.4848 34.2446 38.113C34.2446 39.7365 33.0933 40.8878 31.6663 40.8878H27.3341V45.2266C27.3341 46.6518 26.1828 47.803 24.5546 47.803C22.9264 47.803 21.7761 46.6518 21.7761 45.2266V40.8878H17.442C16.0168 40.8878 14.8656 39.7365 14.8656 38.113C14.8656 36.4848 16.0168 35.3335 17.442 35.3335H21.7761V31.0004C21.7761 29.5687 22.9264 28.4174 24.5546 28.4174ZM58.4205 27.5324C60.9252 27.6004 62.9019 29.682 62.8386 32.1904C62.7706 34.6942 60.6834 36.6728 58.1806 36.6029C55.6778 36.5396 53.6983 34.4533 53.7634 31.9506C53.8314 29.4449 55.9121 27.4673 58.4205 27.5324ZM23.7131 15.1952C14.4613 15.1952 9.46806 21.0092 8.68512 28.1369L5.34651 58.6094C4.56923 65.7333 10.7081 69.8804 15.3661 69.8804C24.5159 69.8804 31.9336 54.9761 36.8815 54.9761H48.3178C53.2667 54.9761 60.6787 69.8804 69.8332 69.8804C74.4912 69.8804 80.8019 65.7135 79.8481 58.6094L76.5085 28.1369C75.5537 21.0347 70.7332 15.1952 61.4852 15.1952C54.6918 15.1952 53.2261 18.8851 45.7007 18.8851H39.4986C31.9732 18.8851 30.5018 15.1952 23.7131 15.1952Z" fill="#EE2461"/>
</svg>
