<svg width="256" height="240" viewBox="0 0 256 240" fill="none" xmlns="http://www.w3.org/2000/svg">
<rect width="256" height="240" rx="8" fill="#FBC332"/>
<g clip-path="url(#clip0)">
<path d="M105.123 119.773C104.936 118.978 104.495 118.265 103.867 117.743C103.239 117.22 102.458 116.915 101.642 116.873C98.82 116.739 95.0159 115.04 92.8371 107.738C90.8962 101.252 91.9873 98.6026 93.4551 97.5471C94.8059 96.5778 95.2647 94.7835 94.7122 93.2177C93.8806 90.8618 93.1452 87.6178 93.5932 84.1691C94.3171 78.6007 86.5179 65.1834 66.898 69.8014C66.7863 69.8313 66.6714 69.8621 66.5606 69.8918C47.341 75.9676 47.5103 91.4852 50.9814 95.8986C53.1321 98.6323 54.1571 101.796 54.652 104.245C54.9792 105.873 56.2908 107.179 57.9482 107.321C59.7489 107.475 62.0421 109.192 63.6998 115.755C65.5652 123.144 63.1665 126.551 60.812 128.111C60.1319 128.565 59.6176 129.227 59.3465 129.998C59.0755 130.769 59.0623 131.607 59.309 132.386C61.1639 138.217 57.9205 148.504 63.6848 158.161C70.6307 169.796 92.5586 163.643 92.5586 163.643C92.5586 163.643 114.545 157.706 114.557 144.154C114.563 132.909 106.51 125.733 105.123 119.773Z" fill="#FF0000"/>
<path d="M88.0181 94.3581C87.1719 94.5857 86.3061 94.7326 85.4322 94.7969C81.3442 95.0876 77.5641 92.9285 75.3259 89.0214C72.8287 84.664 72.8527 79.2654 75.3831 75.5863C77.1759 72.9813 79.7817 71.1119 82.7225 70.3239C85.851 69.4856 89.1448 69.9221 91.9973 71.5569C94.8007 73.1605 96.7612 75.1945 97.8248 77.6025C99.1057 80.5037 99.026 83.6138 97.5959 86.5961C95.8294 90.2714 92.1597 93.2483 88.0181 94.3581Z" fill="white"/>
<path d="M82.9103 71.0252C85.7436 70.266 88.8398 70.5872 91.6352 72.1841C94.4545 73.7977 96.2265 75.783 97.154 77.8946C100.154 84.6864 94.653 91.826 87.8294 93.6544C87.0294 93.8709 86.2105 94.0106 85.384 94.0715C76.333 94.7155 71.283 82.8322 75.9842 75.9972C77.7231 73.4694 80.1969 71.7522 82.9128 71.0245L82.9103 71.0252ZM82.5365 69.6204C79.4287 70.4531 76.6756 72.4249 74.7856 75.1728C73.4084 77.1751 72.7008 79.6319 72.7406 82.2779C72.7912 84.771 73.4632 87.2119 74.6958 89.3796C75.8018 91.3106 77.3094 92.895 79.0561 93.9655C80.9829 95.1436 83.2319 95.6867 85.4854 95.5183C86.4054 95.4508 87.3168 95.2955 88.2073 95.0545C92.5482 93.8914 96.3973 90.7672 98.2546 86.9012C98.9638 85.4494 99.3688 83.8684 99.4445 82.2552C99.5141 80.5524 99.1884 78.8569 98.493 77.3012C97.3657 74.7483 95.303 72.601 92.3623 70.9182C89.3431 69.1908 85.8538 68.7289 82.5383 69.6172L82.5365 69.6204Z" fill="#C55027"/>
<path d="M84.0537 92.4964C77.7681 91.7178 76.3687 83.766 82.0322 80.8037C87.0692 78.1695 93.2395 83.0893 90.7214 88.3727C89.4578 91.0236 87.1938 92.8855 84.0537 92.4964Z" fill="#010101"/>
<path d="M82.317 87.442C80.421 88.3679 78.2515 86.2553 79.3086 84.3883C80.1492 82.8945 82.2624 82.4018 83.129 83.8958C83.85 85.1412 83.7914 86.722 82.317 87.442Z" fill="white"/>
<path d="M59.2311 103.117C58.3239 103.361 57.3956 103.519 56.4587 103.587C54.2052 103.765 51.9541 103.221 50.0319 102.034C48.2725 100.959 46.7502 99.3561 45.6293 97.3991C42.9516 92.7253 42.9764 86.9361 45.6885 82.9924C47.6104 80.1978 50.4061 78.1934 53.5594 77.3485C56.9137 76.4497 60.4468 76.9195 63.5035 78.6677C66.5111 80.3883 68.614 82.5701 69.7542 85.1514C71.1261 88.2602 71.0415 91.5929 69.5087 94.7877C67.6136 98.7339 63.6763 101.926 59.2311 103.117Z" fill="white"/>
<path d="M53.7468 78.0481C56.7976 77.2306 60.1309 77.5768 63.1406 79.2952C66.1765 81.0321 68.0841 83.1697 69.0878 85.4433C72.3161 92.7545 66.391 100.447 59.044 102.416C58.1812 102.648 57.2983 102.798 56.4071 102.863C46.6654 103.556 41.2249 90.7606 46.2872 83.4011C48.1588 80.6803 50.8242 78.8312 53.7468 78.0481ZM53.3705 76.644C50.0501 77.5337 47.1085 79.6418 45.0889 82.5811C43.6224 84.7163 42.8641 87.338 42.9067 90.1665C42.9607 92.8319 43.6794 95.4414 44.9978 97.7586C46.179 99.8217 47.7883 101.514 49.6525 102.652C51.7071 103.91 54.1061 104.491 56.5102 104.313C57.4936 104.241 58.468 104.076 59.4202 103.82C64.0638 102.575 68.1802 99.2345 70.1627 95.0985C70.9204 93.5489 71.3528 91.861 71.4335 90.1387C71.507 88.3231 71.1591 86.5154 70.4171 84.8569C69.213 82.1298 67.009 79.8388 63.8622 78.0351C60.6369 76.1904 56.9103 75.6964 53.3691 76.6452L53.3705 76.644Z" fill="#C55027"/>
<path d="M59.1646 99.9541C52.3957 99.112 50.8895 90.5532 56.9876 87.3638C62.4117 84.5303 69.0548 89.8253 66.3446 95.5161C64.9833 98.3684 62.5456 100.372 59.1646 99.9541Z" fill="#010101"/>
<path d="M57.2957 94.5112C55.254 95.5089 52.9177 93.2339 54.054 91.2191C54.9648 89.6099 57.2348 89.0805 58.1668 90.6898C58.9453 92.034 58.8804 93.7369 57.2957 94.5112Z" fill="white"/>
<path d="M86.4796 121.444C85.4092 122.233 84.1859 123.089 81.7836 123.942C79.245 124.842 77.6735 124.812 76.3456 124.504C75.6608 124.347 75.1105 123.835 74.9875 123.389C74.8678 122.942 75.1104 122.382 75.5737 122.358C76.8835 122.284 78.3319 122.793 80.7988 122.033C83.8135 121.104 84.706 120.118 86.0107 119.486C86.4277 119.286 86.9192 119.625 87.0425 120.072C87.1646 120.514 86.9754 121.079 86.4796 121.444Z" fill="black"/>
<path d="M73.0589 117.464C73.0561 117.474 73.0671 117.462 73.0737 117.46C73.0804 117.458 73.0872 117.448 73.094 117.44C73.1007 117.432 73.1229 117.409 73.1372 117.393C73.1645 117.359 73.1892 117.322 73.2135 117.284C73.2603 117.209 73.2984 117.129 73.3271 117.046C73.3796 116.89 73.3816 116.722 73.3329 116.565C73.3202 116.526 73.3051 116.487 73.2878 116.449C73.2671 116.412 73.2443 116.375 73.2195 116.34C73.1663 116.265 73.1039 116.197 73.0338 116.137C72.8765 116.008 72.7005 115.903 72.5118 115.826C72.124 115.656 71.7307 115.607 71.3841 115.723C71.0376 115.839 70.7234 116.102 70.4428 116.418C70.1596 116.757 69.9038 117.119 69.6778 117.499C69.5595 117.693 69.4417 117.888 69.325 118.088L68.9762 118.688C68.7431 119.092 68.5039 119.496 68.2561 119.898L68.0706 120.198L67.8752 120.501C67.7451 120.703 67.608 120.902 67.4686 121.1C67.187 121.499 66.885 121.884 66.5639 122.253C66.2362 122.63 65.8812 122.982 65.5019 123.307C65.1133 123.645 64.6844 123.933 64.225 124.165C63.7485 124.409 63.2261 124.549 62.6918 124.576C62.1637 124.597 61.6375 124.503 61.1493 124.301C61.0303 124.254 60.9138 124.202 60.7999 124.145C60.6795 124.087 60.563 124.022 60.4513 123.949C60.3334 123.87 60.2229 123.782 60.1213 123.683C60.015 123.579 59.9224 123.463 59.8456 123.336C59.6873 123.071 59.6059 122.767 59.6105 122.458C59.6165 122.163 59.6792 121.872 59.7953 121.6C59.9075 121.33 60.059 121.078 60.2448 120.853C60.3441 120.731 60.4544 120.619 60.5744 120.518C60.7149 120.399 60.8722 120.302 61.0413 120.229L61.4929 120.039C61.6244 119.984 61.7678 119.963 61.9095 119.979C62.0512 119.995 62.1864 120.047 62.3024 120.13C62.4184 120.212 62.5112 120.323 62.572 120.452C62.6328 120.581 62.6596 120.723 62.6499 120.865C62.6401 121.007 62.5941 121.145 62.5163 121.264C62.4384 121.383 62.3313 121.481 62.2051 121.547C62.0789 121.614 61.9379 121.647 61.7953 121.643C61.6528 121.64 61.5135 121.6 61.3908 121.527C61.3336 121.507 61.2709 121.509 61.2148 121.532C61.1351 121.555 61.0592 121.589 60.9897 121.635C60.8348 121.734 60.701 121.863 60.5961 122.015C60.4911 122.16 60.4207 122.327 60.3902 122.504C60.3633 122.668 60.3887 122.837 60.4628 122.986C60.5493 123.147 60.6758 123.283 60.83 123.381C60.9146 123.438 61.004 123.488 61.0971 123.531C61.1979 123.576 61.2979 123.618 61.3965 123.656C61.7871 123.808 62.2093 123.86 62.6253 123.809C63.034 123.746 63.423 123.591 63.7623 123.355C64.1149 123.107 64.4356 122.817 64.717 122.492C65.2992 121.833 65.7949 121.07 66.2914 120.299L67.0345 119.126C67.283 118.73 67.5481 118.334 67.8232 117.941C67.9593 117.744 68.1035 117.552 68.2495 117.359C68.3954 117.165 68.5442 116.973 68.7022 116.786C69.0203 116.395 69.3703 116.032 69.7486 115.699C69.9496 115.523 70.1671 115.366 70.3981 115.232C70.6425 115.088 70.908 114.984 71.1848 114.923C71.4667 114.864 71.7572 114.859 72.0408 114.909C72.3073 114.958 72.5656 115.043 72.8084 115.163C73.0524 115.275 73.2818 115.415 73.4915 115.582C73.5464 115.625 73.5987 115.675 73.6506 115.723C73.7025 115.771 73.7509 115.826 73.7967 115.885C73.894 116.001 73.9752 116.131 74.038 116.269C74.1645 116.553 74.216 116.865 74.1875 117.174C74.1763 117.324 74.1508 117.473 74.1114 117.618C74.0926 117.69 74.0709 117.761 74.0449 117.833C74.0324 117.869 74.0199 117.905 74.005 117.942L73.981 117.998C73.9709 118.021 73.9596 118.044 73.947 118.066C73.9067 118.124 73.8554 118.174 73.796 118.212C73.7366 118.25 73.6702 118.276 73.6007 118.289C73.5312 118.302 73.4599 118.3 73.3909 118.285C73.3219 118.27 73.2565 118.242 73.1984 118.202C73.1404 118.162 73.0909 118.11 73.0527 118.051C73.0145 117.992 72.9884 117.926 72.9758 117.856C72.9633 117.787 72.9645 117.715 72.9795 117.646C72.9945 117.578 73.023 117.512 73.0633 117.454L73.0589 117.464Z" fill="#231F20"/>
<path d="M84.8774 115.006C84.8552 114.994 84.8337 114.979 84.813 114.964L84.7642 114.928C84.7331 114.904 84.7028 114.881 84.6739 114.856C84.615 114.808 84.5589 114.757 84.5067 114.705C84.3987 114.6 84.3009 114.486 84.2147 114.362C84.0311 114.111 83.9156 113.817 83.8793 113.508C83.8626 113.357 83.8662 113.205 83.8901 113.055C83.9006 112.983 83.9149 112.912 83.9329 112.841C83.9527 112.773 83.9724 112.704 83.9975 112.639C84.0923 112.388 84.2172 112.15 84.3693 111.929C84.5164 111.701 84.6949 111.496 84.8995 111.318C85.1173 111.13 85.3692 110.985 85.6415 110.891C85.911 110.804 86.1924 110.758 86.4758 110.756C86.7432 110.754 87.0103 110.777 87.2733 110.825C87.7687 110.917 88.2554 111.051 88.7284 111.224C88.9608 111.304 89.1876 111.393 89.4113 111.484C89.635 111.574 89.8573 111.666 90.0745 111.765C90.5111 111.959 90.9377 112.165 91.358 112.378L92.594 113.004C93.4121 113.411 94.2286 113.812 95.0689 114.08C95.4773 114.216 95.901 114.301 96.3304 114.332C96.7428 114.362 97.1565 114.296 97.5394 114.14C97.9233 113.972 98.2593 113.71 98.5172 113.38C98.5837 113.297 98.649 113.21 98.7131 113.118C98.7716 113.034 98.8228 112.945 98.8661 112.853C98.9481 112.689 98.987 112.508 98.9793 112.326C98.9666 112.16 98.902 112.002 98.7947 111.875C98.6779 111.739 98.5321 111.631 98.3679 111.559C98.2001 111.484 98.0191 111.442 97.8351 111.436C97.7524 111.434 97.6698 111.443 97.5897 111.463C97.5294 111.472 97.4745 111.503 97.4355 111.549C97.3674 111.674 97.2685 111.78 97.1481 111.856C97.0277 111.932 96.8898 111.976 96.7476 111.984C96.6054 111.992 96.4636 111.963 96.3356 111.901C96.2076 111.839 96.0977 111.745 96.0163 111.628C95.9348 111.512 95.8846 111.376 95.8704 111.234C95.8562 111.093 95.8784 110.95 95.935 110.82C95.9916 110.689 96.0806 110.575 96.1936 110.488C96.3067 110.402 96.44 110.345 96.5809 110.325L97.0703 110.256C97.2531 110.231 97.4386 110.235 97.6205 110.265C97.7752 110.291 97.9271 110.331 98.0744 110.384C98.3498 110.483 98.6091 110.623 98.8438 110.798C99.0829 110.971 99.2859 111.19 99.4417 111.441C99.6037 111.704 99.6893 112.006 99.6889 112.314C99.6877 112.463 99.6678 112.611 99.6297 112.755C99.5919 112.89 99.5424 113.022 99.4817 113.149C99.4226 113.268 99.3559 113.384 99.2821 113.495C99.2141 113.602 99.1411 113.71 99.0619 113.808C98.7458 114.231 98.3419 114.581 97.8777 114.834C97.4041 115.083 96.8833 115.229 96.3494 115.263C95.8346 115.299 95.3174 115.271 94.8096 115.18C94.3173 115.094 93.8318 114.973 93.3572 114.817C92.8926 114.666 92.4363 114.49 91.9902 114.29C91.7688 114.192 91.5493 114.091 91.3337 113.984L91.0108 113.824L90.7007 113.659C90.2824 113.441 89.8727 113.216 89.4638 112.99L88.8564 112.651C88.6548 112.541 88.4524 112.434 88.2517 112.326C87.8637 112.116 87.4599 111.936 87.044 111.789C86.6406 111.66 86.2364 111.59 85.8791 111.672C85.5219 111.755 85.2091 111.994 84.9629 112.338C84.8398 112.5 84.7422 112.68 84.6733 112.872C84.6442 112.959 84.6257 113.05 84.618 113.142C84.6149 113.185 84.6143 113.228 84.6161 113.27C84.6198 113.312 84.6263 113.353 84.6356 113.393C84.6745 113.553 84.7626 113.696 84.8874 113.803C84.9537 113.86 85.0263 113.91 85.104 113.95C85.1433 113.971 85.1838 113.989 85.2253 114.006C85.2468 114.013 85.2671 114.019 85.2871 114.025L85.3155 114.031C85.3213 114.03 85.3371 114.036 85.3295 114.027C85.3939 114.057 85.4518 114.098 85.5001 114.15C85.5483 114.202 85.5859 114.262 85.6106 114.328C85.6354 114.395 85.6469 114.465 85.6444 114.536C85.6419 114.606 85.6255 114.676 85.5962 114.74C85.5669 114.804 85.5252 114.862 85.4734 114.91C85.4217 114.959 85.361 114.996 85.2947 115.021C85.2285 115.046 85.158 115.057 85.0874 115.055C85.0167 115.052 84.9472 115.036 84.8828 115.007L84.8774 115.006Z" fill="#231F20"/>
<path d="M55.6357 37.8334L71.1154 105.658C71.1796 105.939 71.3007 106.205 71.4714 106.438C71.6421 106.671 71.8587 106.867 72.108 107.014C72.3572 107.16 72.6339 107.254 72.9209 107.29C73.2079 107.326 73.4993 107.303 73.7771 107.222L79.8736 105.452C80.1461 105.373 80.4001 105.24 80.6204 105.061C80.8407 104.882 81.0229 104.661 81.1563 104.411C81.2897 104.161 81.3715 103.886 81.397 103.604C81.4224 103.322 81.391 103.037 81.3045 102.767L60.0682 36.8104C59.9625 36.4802 59.7774 36.181 59.5291 35.9389C59.2808 35.6968 58.9769 35.5191 58.6439 35.4215L58.3033 35.3215C57.8575 35.1911 57.3811 35.2104 56.947 35.3762C56.5129 35.5421 56.1452 35.8455 55.9 36.2399C55.6049 36.7156 55.5099 37.2884 55.6357 37.8334Z" fill="black"/>
<path d="M56.109 28.6468L60.7903 27.358" stroke="#010101" stroke-width="3.43772" stroke-miterlimit="10"/>
<path d="M59.6552 27.1797L59.8788 27.9909C59.9115 28.1116 59.9703 28.2237 60.0511 28.3192C60.1318 28.4147 60.2326 28.4913 60.3463 28.5436C60.46 28.596 60.5838 28.6228 60.709 28.6221C60.8342 28.6215 60.9577 28.5934 61.0709 28.5399C61.6057 28.293 62.1231 27.8357 61.894 27.0136C61.6722 26.209 61.0083 26.0567 60.4229 26.095C60.2958 26.1034 60.1721 26.1402 60.061 26.2024C59.9499 26.2647 59.8541 26.3509 59.7805 26.4549C59.707 26.5588 59.6575 26.6778 59.6359 26.8032C59.6142 26.9286 59.6208 27.0572 59.6552 27.1797Z" fill="#010101"/>
<path d="M57.0628 32.1103L61.7441 30.8214" stroke="#010101" stroke-width="3.43772" stroke-miterlimit="10"/>
<path d="M60.6088 30.6432L60.8324 31.4544C60.8651 31.575 60.9239 31.6871 61.0047 31.7826C61.0855 31.8781 61.1862 31.9547 61.2999 32.0071C61.4136 32.0594 61.5374 32.0862 61.6626 32.0856C61.7878 32.0849 61.9113 32.0569 62.0245 32.0034C62.5593 31.7565 63.077 31.3 62.8476 30.4771C62.6258 29.6725 61.9611 29.5204 61.3767 29.5592C61.2497 29.5677 61.1261 29.6044 61.0151 29.6666C60.904 29.7288 60.8082 29.8149 60.7346 29.9188C60.661 30.0226 60.6116 30.1415 60.5898 30.2668C60.5681 30.3921 60.5745 30.5207 60.6088 30.6432Z" fill="#010101"/>
<path d="M55.0492 27.4073L50.3687 28.6959" stroke="#010101" stroke-width="3.43772" stroke-miterlimit="10"/>
<path d="M51.2523 27.9616L51.4758 28.7728C51.509 28.8934 51.5155 29.0197 51.4948 29.1431C51.4741 29.2664 51.4267 29.3838 51.356 29.487C51.2853 29.5902 51.1929 29.6768 51.0853 29.7407C50.9777 29.8046 50.8574 29.8444 50.7329 29.8572C50.1474 29.9184 49.4737 29.7891 49.2443 28.9662C49.0228 28.1624 49.5161 27.6912 50.0379 27.4257C50.1512 27.3679 50.276 27.3362 50.4031 27.3326C50.5302 27.3291 50.6565 27.3539 50.7728 27.4052C50.8891 27.4565 50.9925 27.5331 51.0754 27.6294C51.1583 27.7256 51.2188 27.8391 51.2523 27.9616Z" fill="#010101"/>
<path d="M56.0236 30.766L51.3424 32.0549" stroke="#010101" stroke-width="3.43772" stroke-miterlimit="10"/>
<path d="M52.2271 31.3212L52.4507 32.1324C52.484 32.253 52.4906 32.3793 52.47 32.5027C52.4494 32.6261 52.402 32.7436 52.3313 32.8468C52.2605 32.9501 52.1681 33.0367 52.0604 33.1006C51.9527 33.1645 51.8323 33.2041 51.7077 33.2167C51.1223 33.278 50.4488 33.1495 50.2194 32.3266C49.9976 31.522 50.4912 31.0516 51.013 30.7861C51.1263 30.7284 51.2509 30.6966 51.378 30.693C51.505 30.6895 51.6313 30.7142 51.7475 30.7654C51.8638 30.8167 51.9671 30.8931 52.0501 30.9893C52.133 31.0854 52.1935 31.1988 52.2271 31.3212Z" fill="#010101"/>
<path d="M54.0112 28.6743L83.3133 142.07" stroke="#BCBEC0" stroke-width="1.23044" stroke-miterlimit="10" stroke-linecap="round"/>
<path d="M54.6968 28.4862L85.2665 141.532" stroke="#BCBEC0" stroke-width="1.23044" stroke-miterlimit="10" stroke-linecap="round"/>
<path d="M56.4932 27.9916L89.4518 140.379" stroke="#BCBEC0" stroke-width="1.23044" stroke-miterlimit="10" stroke-linecap="round"/>
<path d="M55.6377 28.227L87.4986 140.918" stroke="#BCBEC0" stroke-width="1.23044" stroke-miterlimit="10" stroke-linecap="round"/>
<path d="M83.2384 139.719L88.8579 138.087C90.0965 137.728 91.3074 138.536 91.2809 139.711C91.182 144.092 91.68 153.578 97.2174 159.699C98.0925 160.666 97.5313 162.041 96.1712 162.437L93.4127 163.389L90.0205 164.309C88.7162 164.688 87.4626 163.85 87.6019 162.613C88.0393 158.734 88.3982 150.838 82.1251 142.468C81.3904 141.492 81.9572 140.091 83.2384 139.719Z" fill="black"/>
<path d="M52.3609 25.2922C51.7831 25.4515 51.4573 25.9956 51.653 26.4645C51.9622 27.2224 52.2236 27.9988 52.4355 28.7894C52.7075 29.7848 52.8736 30.8061 52.9311 31.8365C52.9619 32.3717 53.5411 32.7105 54.1454 32.5442L54.458 32.4604C54.9988 32.3155 55.3287 31.8164 55.1932 31.3605L53.5469 25.8349C53.4186 25.3859 52.8874 25.1467 52.3609 25.2922Z" fill="#9B3521"/>
<path d="M56.3237 24.2082C56.9015 24.0489 57.459 24.3466 57.5317 24.8529C57.6544 25.6621 57.8272 26.4629 58.0492 27.2506C58.3254 28.2449 58.7054 29.2074 59.183 30.1222C59.4309 30.5976 59.106 31.1848 58.5018 31.3511L58.1892 31.4349C57.6483 31.5798 57.1117 31.327 56.9953 30.8695L55.5803 25.2776C55.4674 24.8298 55.8003 24.352 56.3237 24.2082Z" fill="#9B3521"/>
<path d="M55.9217 24.0476C55.7295 23.5388 55.0205 23.2976 54.3015 23.4956L54.0799 23.555L53.8591 23.6141C53.1392 23.8123 52.654 24.3797 52.7492 24.9172L55.1294 38.3551C55.2339 38.9468 55.9925 39.2605 56.7875 39.0422L59.6847 38.2535C60.4771 38.035 60.9702 37.3779 60.7574 36.8152L55.9217 24.0476Z" fill="#C54F27"/>
<path d="M63.1038 157.656C63.1038 157.656 78.4171 144.303 86.035 163.143C86.035 163.143 91.906 162.669 93.2507 160.724C94.5953 158.779 95.7047 162.032 93.7814 163.082C91.5776 164.285 70.557 169.812 63.1038 157.656Z" fill="black"/>
<path d="M48.5122 130.299C48.5122 130.299 74.9531 129.791 83.7066 128.996C93.4275 128.113 123.076 124.011 123.076 124.011" stroke="white" stroke-width="3.08706" stroke-miterlimit="10"/>
<path d="M50.2333 130.758C50.2333 130.758 49.0292 128.504 49.9642 128.295C50.8992 128.086 63.4487 128.265 64.4504 128.199C65.4521 128.134 85.8462 127.219 108.862 123.079L121.844 120.408C121.844 120.408 122.501 121.82 122.804 121.551C123.107 121.282 125.708 120.784 124.994 122.026C124.28 123.268 121.984 123.63 121.984 123.63L122.004 124.794L131.631 123.738L130.656 119.439C130.656 119.439 136.329 118.875 136.901 118.282C137.473 117.688 137.906 116.171 135.721 116.41C133.537 116.649 117.058 119.503 117.058 119.503L106.227 121.327C106.227 121.327 88.7283 124.415 87.1138 124.698C85.4993 124.981 65.2684 127.306 63.5376 127.075C61.8069 126.845 49.2853 127.577 48.8141 127.31C48.3428 127.044 48.1927 129.623 47.3945 130.074C46.5962 130.525 48.7739 131.024 50.2333 130.758Z" fill="#603913"/>
<path d="M130.658 119.441L131.633 123.741L122.006 124.796L121.986 123.632C121.986 123.632 124.283 123.274 124.996 122.028C125.709 120.783 123.112 121.281 122.806 121.553C122.501 121.825 121.846 120.41 121.846 120.41L130.658 119.441Z" fill="black"/>
<path d="M120.39 120.707L120.199 118.964L114.811 119.884L115.021 121.812L120.39 120.707Z" fill="black"/>
<path d="M115.022 121.812L107.409 123.423L107.146 121.175L114.811 119.884L115.022 121.812Z" fill="#DBDDDC"/>
</g>
<circle cx="197.299" cy="46.2987" r="31.2635" fill="#4200FF" stroke="white" stroke-width="2.07043"/>
<circle cx="197.299" cy="148.299" r="31.2635" fill="#FF0000" stroke="white" stroke-width="2.07043"/>
<circle cx="197.299" cy="104.299" r="31.2635" fill="#06A429" stroke="white" stroke-width="2.07043"/>
<path d="M69.6868 209.343C70.4045 209.826 70.9194 210.177 71.2314 210.396C71.7931 210.817 72.074 211.223 72.074 211.613C72.074 211.987 71.8399 212.518 71.3719 213.204C70.9038 213.891 70.4279 214.234 69.9442 214.234C69.6478 214.234 69.1953 214.023 68.5868 213.602C68.5088 213.555 68.2904 213.407 67.9315 213.157C67.5727 212.908 67.2918 212.721 67.089 212.596C65.638 213.719 64.0075 214.281 62.1976 214.281C59.7793 214.281 57.7353 213.423 56.0659 211.706C54.412 209.99 53.5851 207.946 53.5851 205.575C53.5851 204.28 53.8191 203.07 54.2872 201.947C54.7553 200.808 55.3794 199.856 56.1595 199.092C56.9396 198.327 57.8368 197.727 58.8509 197.29C59.8651 196.853 60.9104 196.634 61.987 196.634C64.2962 196.634 66.3011 197.469 68.0017 199.139C69.7024 200.808 70.5527 202.922 70.5527 205.481C70.5527 206.776 70.2641 208.063 69.6868 209.343ZM57.7275 205.458C57.7275 206.846 58.1722 207.977 59.0615 208.851C59.9665 209.709 60.9728 210.138 62.0806 210.138C63.1884 210.138 64.1869 209.717 65.0763 208.875C65.9656 208.032 66.4103 206.901 66.4103 205.481C66.4103 204.061 65.9578 202.922 65.0529 202.064C64.1635 201.206 63.165 200.777 62.0572 200.777C60.9494 200.777 59.9509 201.214 59.0615 202.088C58.1722 202.946 57.7275 204.069 57.7275 205.458ZM78.131 213.953C76.5551 213.953 75.2445 213.36 74.1991 212.175C73.1694 210.973 72.6545 209.514 72.6545 207.798V203.702C72.6545 203.328 72.6623 203.055 72.6779 202.883C72.7091 202.712 72.7793 202.509 72.8885 202.275C73.107 201.854 73.7155 201.643 74.714 201.643C75.8062 201.643 76.4459 201.939 76.6331 202.532C76.7267 202.782 76.7735 203.18 76.7735 203.726V207.821C76.7735 208.461 76.953 208.96 77.3118 209.319C77.6863 209.678 78.1778 209.858 78.7863 209.858C79.4104 209.858 79.9096 209.67 80.2841 209.296C80.6742 208.921 80.8692 208.43 80.8692 207.821V203.679C80.8692 203.32 80.877 203.055 80.8926 202.883C80.9238 202.696 81.0018 202.485 81.1266 202.251C81.3295 201.846 81.9301 201.643 82.9287 201.643C83.9117 201.643 84.5124 201.854 84.7308 202.275C84.84 202.509 84.9024 202.719 84.918 202.907C84.9492 203.078 84.9648 203.344 84.9648 203.702V211.987C84.9648 212.331 84.9492 212.596 84.918 212.783C84.9024 212.955 84.8322 213.15 84.7074 213.368C84.4733 213.774 83.8727 213.977 82.9053 213.977C81.9536 213.977 81.3685 213.789 81.15 213.415C80.994 213.15 80.916 212.83 80.916 212.455C80.8536 212.565 80.7132 212.721 80.4947 212.923C80.2763 213.126 80.0657 213.298 79.8628 213.438C79.3323 213.782 78.7551 213.953 78.131 213.953ZM94.8516 202.977C94.9452 202.103 95.5615 201.666 96.7005 201.666C97.309 201.666 97.7614 201.713 98.0579 201.807C98.3543 201.9 98.5572 202.064 98.6664 202.298C98.7912 202.532 98.8614 202.743 98.877 202.93C98.9082 203.102 98.9238 203.367 98.9238 203.726V211.917C98.9238 212.276 98.9082 212.549 98.877 212.736C98.8614 212.908 98.799 213.111 98.6898 213.345C98.4714 213.75 97.9331 213.953 97.0749 213.953C96.2324 213.953 95.6629 213.852 95.3665 213.649C95.0856 213.431 94.9218 213.118 94.875 212.713C94.2977 213.54 93.3304 213.953 91.9729 213.953C90.6311 213.953 89.3829 213.337 88.2284 212.104C87.0738 210.872 86.4965 209.444 86.4965 207.821C86.4965 206.183 87.0738 204.756 88.2284 203.539C89.3985 202.306 90.6779 201.69 92.0666 201.69C92.597 201.69 93.0807 201.783 93.5176 201.971C93.9544 202.158 94.2587 202.337 94.4303 202.509C94.602 202.665 94.7424 202.821 94.8516 202.977ZM90.5921 207.845C90.5921 208.36 90.795 208.828 91.2006 209.249C91.6063 209.655 92.0978 209.858 92.675 209.858C93.2523 209.858 93.7282 209.647 94.1027 209.226C94.4927 208.804 94.6878 208.344 94.6878 207.845C94.6878 207.33 94.5005 206.854 94.1261 206.417C93.7672 205.98 93.2757 205.762 92.6516 205.762C92.0432 205.762 91.5439 205.98 91.1538 206.417C90.7794 206.854 90.5921 207.33 90.5921 207.845ZM100.789 197.922C100.789 197.563 100.797 197.298 100.813 197.126C100.844 196.939 100.914 196.728 101.023 196.494C101.242 196.073 101.85 195.862 102.849 195.862C103.8 195.862 104.393 196.073 104.627 196.494C104.752 196.728 104.822 196.939 104.838 197.126C104.869 197.313 104.885 197.586 104.885 197.945V208.781C104.885 209.343 104.932 209.702 105.025 209.858C105.119 209.998 105.322 210.068 105.634 210.068C105.961 210.068 106.18 210.084 106.289 210.115C106.398 210.131 106.531 210.193 106.687 210.302C106.999 210.505 107.155 211.059 107.155 211.964C107.155 212.947 106.999 213.548 106.687 213.766C106.281 214.047 105.314 214.094 103.785 213.906C102.583 213.75 101.803 213.352 101.444 212.713C101.008 211.948 100.789 210.731 100.789 209.062V197.922ZM119.42 200.519C119.202 200.629 118.968 200.683 118.718 200.683C118.25 200.683 117.868 200.223 117.571 199.303C117.447 198.928 117.384 198.608 117.384 198.343C117.384 198.078 117.439 197.875 117.548 197.734C117.688 197.532 117.969 197.368 118.391 197.243L122.252 196.049C122.658 195.94 122.892 195.886 122.954 195.886C123.422 195.886 123.797 196.346 124.078 197.266C124.202 197.641 124.265 197.961 124.265 198.226C124.265 198.476 124.21 198.671 124.101 198.811C123.961 199.014 123.68 199.178 123.259 199.303L119.42 200.519ZM126.254 206.37C126.254 207.322 126.012 208.032 125.529 208.5C125.061 208.953 124.538 209.179 123.961 209.179H118.414C118.414 209.616 118.671 209.982 119.186 210.279C119.701 210.575 120.216 210.723 120.731 210.723C121.636 210.723 122.346 210.63 122.861 210.443L123.118 210.349C123.493 210.177 123.805 210.092 124.054 210.092C124.554 210.092 124.983 210.443 125.341 211.145C125.544 211.566 125.646 211.925 125.646 212.221C125.646 213.61 123.984 214.304 120.661 214.304C119.506 214.304 118.476 214.109 117.571 213.719C116.682 213.313 115.988 212.783 115.488 212.128C114.506 210.864 114.014 209.452 114.014 207.892C114.014 205.926 114.646 204.358 115.91 203.188C117.189 202.002 118.781 201.409 120.684 201.409C122.853 201.409 124.444 202.173 125.458 203.702C125.989 204.514 126.254 205.403 126.254 206.37ZM121.316 207.049C121.909 207.049 122.205 206.799 122.205 206.3C122.205 205.941 122.065 205.653 121.784 205.434C121.519 205.216 121.129 205.107 120.614 205.107C120.115 205.107 119.615 205.317 119.116 205.739C118.617 206.144 118.367 206.581 118.367 207.049H121.316ZM141.705 202.977C141.798 202.103 142.415 201.666 143.553 201.666C144.162 201.666 144.614 201.713 144.911 201.807C145.207 201.9 145.41 202.064 145.519 202.298C145.644 202.532 145.714 202.743 145.73 202.93C145.761 203.102 145.777 203.367 145.777 203.726V211.917C145.777 212.276 145.761 212.549 145.73 212.736C145.714 212.908 145.652 213.111 145.543 213.345C145.324 213.75 144.786 213.953 143.928 213.953C143.085 213.953 142.516 213.852 142.219 213.649C141.939 213.431 141.775 213.118 141.728 212.713C141.151 213.54 140.183 213.953 138.826 213.953C137.484 213.953 136.236 213.337 135.081 212.104C133.927 210.872 133.35 209.444 133.35 207.821C133.35 206.183 133.927 204.756 135.081 203.539C136.252 202.306 137.531 201.69 138.92 201.69C139.45 201.69 139.934 201.783 140.371 201.971C140.807 202.158 141.112 202.337 141.283 202.509C141.455 202.665 141.595 202.821 141.705 202.977ZM137.445 207.845C137.445 208.36 137.648 208.828 138.054 209.249C138.459 209.655 138.951 209.858 139.528 209.858C140.105 209.858 140.581 209.647 140.956 209.226C141.346 208.804 141.541 208.344 141.541 207.845C141.541 207.33 141.354 206.854 140.979 206.417C140.62 205.98 140.129 205.762 139.505 205.762C138.896 205.762 138.397 205.98 138.007 206.417C137.632 206.854 137.445 207.33 137.445 207.845ZM164.281 209.506L164.702 209.202C165.232 208.89 165.607 208.734 165.825 208.734C166.309 208.734 166.832 209.171 167.393 210.045C167.736 210.591 167.908 211.028 167.908 211.355C167.908 211.683 167.799 211.956 167.58 212.175C167.378 212.393 167.136 212.588 166.855 212.76C166.574 212.931 166.301 213.095 166.036 213.251C165.786 213.407 165.264 213.61 164.468 213.86C163.672 214.109 162.9 214.234 162.151 214.234C161.418 214.234 160.669 214.14 159.904 213.953C159.155 213.75 158.375 213.423 157.564 212.97C156.768 212.502 156.05 211.94 155.411 211.285C154.771 210.614 154.24 209.764 153.819 208.734C153.413 207.689 153.211 206.558 153.211 205.341C153.211 204.124 153.413 203.024 153.819 202.041C154.225 201.042 154.74 200.223 155.364 199.583C156.003 198.928 156.729 198.382 157.54 197.945C159.069 197.103 160.606 196.681 162.151 196.681C162.884 196.681 163.625 196.798 164.374 197.032C165.139 197.251 165.716 197.477 166.106 197.711L166.668 198.039C166.949 198.21 167.167 198.351 167.323 198.46C167.729 198.788 167.932 199.162 167.932 199.583C167.932 199.989 167.768 200.418 167.44 200.871C166.832 201.713 166.285 202.134 165.802 202.134C165.521 202.134 165.123 201.963 164.608 201.619C163.953 201.089 163.079 200.824 161.987 200.824C160.973 200.824 159.974 201.175 158.991 201.877C158.523 202.22 158.133 202.704 157.821 203.328C157.509 203.952 157.353 204.662 157.353 205.458C157.353 206.238 157.509 206.94 157.821 207.564C158.133 208.188 158.531 208.68 159.015 209.038C159.966 209.725 160.957 210.068 161.987 210.068C162.471 210.068 162.923 210.006 163.344 209.881C163.781 209.756 164.093 209.631 164.281 209.506ZM169.095 207.845C169.095 205.973 169.75 204.428 171.061 203.211C172.371 201.994 173.869 201.385 175.554 201.385C177.239 201.385 178.729 201.994 180.024 203.211C181.319 204.412 181.967 205.949 181.967 207.821C181.967 209.116 181.631 210.271 180.961 211.285C180.29 212.284 179.471 213.025 178.503 213.509C177.551 213.977 176.561 214.211 175.531 214.211C174.501 214.211 173.503 213.961 172.535 213.462C171.568 212.947 170.749 212.198 170.078 211.215C169.423 210.216 169.095 209.093 169.095 207.845ZM173.986 209.53C174.486 209.904 174.993 210.092 175.508 210.092C176.022 210.092 176.537 209.897 177.052 209.506C177.567 209.116 177.824 208.539 177.824 207.775C177.824 207.01 177.583 206.441 177.099 206.066C176.615 205.692 176.093 205.504 175.531 205.504C174.969 205.504 174.447 205.7 173.963 206.09C173.479 206.48 173.237 207.057 173.237 207.821C173.237 208.57 173.487 209.14 173.986 209.53ZM191.858 201.807C192.154 201.9 192.396 202.064 192.583 202.298C192.786 202.517 192.887 202.875 192.887 203.375C192.887 203.874 192.739 204.42 192.443 205.013C192.146 205.606 191.717 205.902 191.155 205.902C190.875 205.902 190.602 205.84 190.336 205.715C190.087 205.59 189.751 205.528 189.33 205.528C188.909 205.528 188.511 205.676 188.136 205.973C187.778 206.269 187.598 206.628 187.598 207.049V211.964C187.598 212.323 187.582 212.596 187.551 212.783C187.536 212.955 187.465 213.157 187.341 213.392C187.107 213.797 186.498 214 185.515 214C184.766 214 184.228 213.867 183.9 213.602C183.651 213.384 183.51 213.048 183.479 212.596C183.479 212.44 183.479 212.214 183.479 211.917V203.702C183.479 203.344 183.487 203.078 183.502 202.907C183.534 202.719 183.604 202.517 183.713 202.298C183.932 201.877 184.54 201.666 185.539 201.666C186.475 201.666 187.06 201.846 187.294 202.205C187.465 202.454 187.551 202.712 187.551 202.977C187.629 202.868 187.739 202.735 187.879 202.579C188.035 202.423 188.355 202.212 188.838 201.947C189.322 201.682 189.743 201.549 190.102 201.549C190.477 201.549 190.789 201.573 191.038 201.619C191.288 201.651 191.561 201.713 191.858 201.807ZM197.288 206.16L197.311 205.973C197.311 205.302 197.499 204.771 197.873 204.381C198.263 203.991 198.684 203.734 199.137 203.609C199.589 203.484 200.003 203.273 200.377 202.977C200.767 202.68 200.962 202.283 200.962 201.783C200.962 201.268 200.814 200.871 200.518 200.59C200.237 200.309 199.808 200.168 199.23 200.168C198.653 200.168 198.224 200.262 197.943 200.449C197.678 200.621 197.514 200.8 197.452 200.988L197.382 201.268C197.241 201.674 197.077 201.986 196.89 202.205C196.703 202.407 196.461 202.509 196.165 202.509C195.868 202.509 195.478 202.415 194.994 202.228C194.058 201.869 193.59 201.424 193.59 200.894C193.59 200.66 193.637 200.426 193.731 200.192C193.824 199.942 193.902 199.739 193.965 199.583C194.027 199.412 194.191 199.123 194.456 198.717C194.737 198.312 195.049 197.961 195.392 197.664C195.751 197.352 196.25 197.071 196.89 196.822C197.53 196.556 198.24 196.424 199.02 196.424C200.674 196.424 202.023 196.954 203.069 198.015C204.114 199.076 204.637 200.309 204.637 201.713C204.637 202.384 204.512 203.008 204.262 203.585C204.028 204.147 203.74 204.592 203.396 204.919C202.71 205.575 202.07 206.012 201.477 206.23L201.103 206.347C201.103 206.612 201.087 206.815 201.056 206.955C201.04 207.096 200.97 207.252 200.845 207.424C200.736 207.58 200.541 207.697 200.26 207.775C199.995 207.837 199.636 207.868 199.184 207.868C198.731 207.868 198.364 207.829 198.084 207.751C197.818 207.673 197.631 207.541 197.522 207.353C197.413 207.166 197.343 207.002 197.311 206.862C197.296 206.706 197.288 206.472 197.288 206.16ZM197.194 210.349C197.319 210.099 197.538 209.92 197.85 209.811C198.177 209.702 198.684 209.647 199.371 209.647C200.057 209.647 200.549 209.803 200.845 210.115C201.157 210.411 201.313 210.997 201.313 211.87C201.313 212.494 201.235 212.962 201.079 213.274C200.923 213.571 200.681 213.774 200.354 213.883C200.042 213.977 199.55 214.023 198.879 214.023C198.208 214.023 197.694 213.86 197.335 213.532C197.069 213.267 196.937 212.814 196.937 212.175V211.8C196.937 211.441 196.945 211.168 196.96 210.981C196.991 210.794 197.069 210.583 197.194 210.349Z" fill="#A42B31"/>
<defs>
<clipPath id="clip0">
<rect width="90.4829" height="145.274" fill="white" transform="translate(21 32.4187) rotate(-15)"/>
</clipPath>
</defs>
</svg>
