<svg width="52" height="52" viewBox="0 0 52 52" fill="none" xmlns="http://www.w3.org/2000/svg">
<circle cx="26" cy="26" r="26" fill="#EE2461"/>
<path d="M37.98 36.4594C37.3278 34.9146 36.3813 33.5113 35.1933 32.3278C34.0089 31.1409 32.6059 30.1946 31.0617 29.5411C31.0478 29.5342 31.034 29.5307 31.0202 29.5238C33.1742 27.968 34.5744 25.4337 34.5744 22.5744C34.5744 17.8377 30.7367 14 26 14C21.2633 14 17.4256 17.8377 17.4256 22.5744C17.4256 25.4337 18.8258 27.968 20.9798 29.5273C20.966 29.5342 20.9522 29.5377 20.9383 29.5446C19.3894 30.198 17.9995 31.135 16.8067 32.3313C15.6198 33.5157 14.6735 34.9187 14.02 36.4629C13.3781 37.9747 13.0318 39.5955 13.0001 41.2376C12.9992 41.2745 13.0056 41.3112 13.0191 41.3456C13.0326 41.3799 13.0528 41.4112 13.0786 41.4377C13.1044 41.4641 13.1352 41.4851 13.1692 41.4994C13.2032 41.5137 13.2398 41.5211 13.2767 41.5211H15.3511C15.5033 41.5211 15.6243 41.4001 15.6277 41.2514C15.6969 38.5823 16.7687 36.0826 18.6633 34.1879C20.6237 32.2275 23.2271 31.1488 26 31.1488C28.7729 31.1488 31.3763 32.2275 33.3367 34.1879C35.2313 36.0826 36.3031 38.5823 36.3723 41.2514C36.3757 41.4035 36.4967 41.5211 36.6489 41.5211H38.7233C38.7602 41.5211 38.7968 41.5137 38.8308 41.4994C38.8648 41.4851 38.8956 41.4641 38.9214 41.4377C38.9472 41.4112 38.9674 41.3799 38.9809 41.3456C38.9944 41.3112 39.0008 41.2745 38.9999 41.2376C38.9653 39.5849 38.6231 37.9772 37.98 36.4594ZM26 28.5212C24.413 28.5212 22.9194 27.9023 21.7958 26.7786C20.6721 25.655 20.0532 24.1614 20.0532 22.5744C20.0532 20.9875 20.6721 19.4938 21.7958 18.3702C22.9194 17.2465 24.413 16.6276 26 16.6276C27.587 16.6276 29.0806 17.2465 30.2042 18.3702C31.3279 19.4938 31.9468 20.9875 31.9468 22.5744C31.9468 24.1614 31.3279 25.655 30.2042 26.7786C29.0806 27.9023 27.587 28.5212 26 28.5212Z" fill="white"/>
</svg>
